# xmcd CD database file
#
# Track frame offsets:
#	225
#	16922
#	25283
#	30988
#	47023
#	64250
#	70426
#	84067
#	88504
#	96700
#	119238
#	143330
#	148956
#	153400
#	161781
#	168964
#	178898
#	196316
#	206489
#	212480
#	226039
#	230373
#	243665
#	251106
#	263314
#
# Disc length: 3750 seconds
#
# Revision: 1
# Processed by: cddbd v1.5.2PL0 Copyright (c) Steve Scherf et al.
# Submitted via: CDex 1.51
#
DISCID=5b0ea319
DTITLE=Michael Garrick's Fairground - Mr Smith's Apocalypse
DYEAR=1971
DGENRE=Jazz
TTITLE0=Epiphany
TTITLE1=Blues
TTITLE2=Invocation
TTITLE3=In the Silence of God
TTITLE4=Who Can Endure
TTITLE5=Speak, God
TTITLE6=For we are lost
TTITLE7=I have torn up
TTITLE8=You are Fools
TTITLE9=Some men live on the mountain
TTITLE10=I saw the face
TTITLE11=How may we understand
TTITLE12=Organ Improvisation
TTITLE13=Blues
TTITLE14=Invocation
TTITLE15=Who will plead for us
TTITLE16=I took myself off to the doctor
TTITLE17=What is this clamour
TTITLE18=Who hath made man's heart
TTITLE19=Children's Chorus
TTITLE20=I will speak, I will say
TTITLE21=Heart, like a dove, be still
TTITLE22=The Waters of Love
TTITLE23=To the Celebration
TTITLE24=Blessed are the Peacemakers
EXTD=YEAR: 1971
EXTT0=
EXTT1=
EXTT2=
EXTT3=
EXTT4=
EXTT5=
EXTT6=
EXTT7=
EXTT8=
EXTT9=
EXTT10=
EXTT11=
EXTT12=
EXTT13=
EXTT14=
EXTT15=
EXTT16=
EXTT17=
EXTT18=
EXTT19=
EXTT20=
EXTT21=
EXTT22=
EXTT23=
EXTT24=
PLAYORDER=
